:version 1.10
:name ASF
:units
  mass 1
  length 1
  angle deg
:documentation
  ASF file generated by Kaydara
:root
  axis xyz
  order  tx ty tz rx ry rz
  position 0 0 0
  orientation 0 0 0
:bonedata
  begin
    id 1
    name SpineDummy
    direction 0.999998 -0.00179978 1.38929e-006
    length 3.60008
    axis 0 0 0 xyz
  end
  begin
    id 2
    name Spine
    direction 0.964365 0.262802 0.0305839
    length 8.13928
    axis 1.33928 -1.75354 15.2838 xyz
    dof rx ry rz
  end
  begin
    id 3
    name Spine1
    direction 0.811168 0.572065 0.12144
    length 7.14954
    axis 2.2224 -6.9761 35.2157 xyz
    dof rx ry rz
  end
  begin
    id 4
    name Neck
    direction 0 0 0
    length 0
    axis 2.2224 -6.9761 35.2157 xyz
    dof rx ry rz
  end
  begin
    id 5
    name HeadDummy
    direction 0.810939 0.572387 0.121455
    length 3.55534
    axis 2.2224 -6.9761 35.2157 xyz
  end
  begin
    id 6
    name Head
    direction 0.998226 -0.000232542 0.0595419
    length 7.35666
    axis -3.03688 -3.41352 -0.0133467 xyz
    dof rx ry rz
  end
  begin
    id 7
    name R_ClavicleDummy
    direction 0.531669 -0.194489 -0.824319
    length 2.49392
    axis 2.2224 -6.9761 35.2157 xyz
  end
  begin
    id 8
    name R_Clavicle
    direction -0.155119 0.0480802 -0.986725
    length 4.485
    axis -54.2764 80.6538 162.779 xyz
    dof rx ry rz
  end
  begin
    id 9
    name R_UpperArm
    direction -0.955567 0.200068 -0.216484
    length 10.1122
    axis -72.9943 12.5026 168.175 xyz
    dof rx ry rz
  end
  begin
    id 10
    name R_Forearm
    direction -0.61433 0.385743 0.688332
    length 9.39148
    axis -117.015 -43.4982 147.875 xyz
    dof rx ry rz
  end
  begin
    id 11
    name R_Hand
    direction -0.699429 0.0170333 0.714499
    length 3.66324
    axis -45.0303 -36.7097 175.478 xyz
    dof rx ry rz
  end
  begin
    id 12
    name L_ClavicleDummy
    direction 0.40287 -0.36502 0.839319
    length 2.49392
    axis 2.2224 -6.9761 35.2157 xyz
  end
  begin
    id 13
    name L_Clavicle
    direction -0.231271 -0.0726419 0.970174
    length 4.485
    axis 18.4357 -75.9711 -162.563 xyz
    dof rx ry rz
  end
  begin
    id 14
    name L_UpperArm
    direction -0.917494 0.144359 0.370629
    length 10.1122
    axis 56.0417 -21.7544 171.058 xyz
    dof rx ry rz
  end
  begin
    id 15
    name L_Forearm
    direction -0.496786 0.615074 -0.612281
    length 9.39148
    axis 89.8094 37.7546 128.927 xyz
    dof rx ry rz
  end
  begin
    id 16
    name L_Hand
    direction -0.409932 0.64962 -0.640274
    length 3.66324
    axis -0.424369 32.133 128.52 xyz
    dof rx ry rz
  end
  begin
    id 17
    name L_ThighDummy
    direction -1.84081e-006 1.87549e-006 1
    length 3.13049
    axis 0 0 0 xyz
  end
  begin
    id 18
    name L_Thigh
    direction -0.947739 0.307978 0.083308
    length 17.9961
    axis 173.219 -4.77873 161.998 xyz
    dof rx ry rz
  end
  begin
    id 19
    name L_Calf
    direction -0.728814 -0.684427 0.0197583
    length 13.3367
    axis 167.331 -1.13214 -136.799 xyz
    dof rx ry rz
  end
  begin
    id 20
    name L_Foot
    direction -0.9028 0.418719 0.0981191
    length 5.8674
    axis 163.436 11.5135 -155.37 xyz
    dof rx ry rz
  end
  begin
    id 21
    name L_Toe0
    direction -0.35341 0.886259 0.299411
    length 4.75286
    axis 169.316 -17.4222 111.74 xyz
    dof rx ry rz
  end
  begin
    id 22
    name R_ThighDummy
    direction 9.32778e-007 -8.82053e-007 -1
    length 3.13049
    axis 0 0 0 xyz
  end
  begin
    id 23
    name R_Thigh
    direction -0.925064 0.37528 -0.0585023
    length 17.9961
    axis -178.698 3.35385 157.919 xyz
    dof rx ry rz
  end
  begin
    id 24
    name R_Calf
    direction -0.68969 -0.718776 -0.0876886
    length 13.3367
    axis -160.504 5.03065 -133.817 xyz
    dof rx ry rz
  end
  begin
    id 25
    name R_Foot
    direction -0.857405 0.418858 -0.299022
    length 5.8674
    axis -161.328 4.38911 -154.413 xyz
    dof rx ry rz
  end
  begin
    id 26
    name R_Toe0
    direction -0.100745 0.952789 -0.286433
    length 4.75286
    axis 171.683 16.6445 96.0359 xyz
    dof rx ry rz
  end
:hierarchy
  begin
    root SpineDummy L_ThighDummy R_ThighDummy
    SpineDummy Spine
    Spine Spine1
    Spine1 Neck
    Neck HeadDummy R_ClavicleDummy L_ClavicleDummy
    HeadDummy Head
    R_ClavicleDummy R_Clavicle
    R_Clavicle R_UpperArm
    R_UpperArm R_Forearm
    R_Forearm R_Hand
    L_ClavicleDummy L_Clavicle
    L_Clavicle L_UpperArm
    L_UpperArm L_Forearm
    L_Forearm L_Hand
    L_ThighDummy L_Thigh
    L_Thigh L_Calf
    L_Calf L_Foot
    L_Foot L_Toe0
    R_ThighDummy R_Thigh
    R_Thigh R_Calf
    R_Calf R_Foot
    R_Foot R_Toe0
  end

:SAMPLES-PER-SECOND 30
:FULLY-SPECIFIED
:DEGREES
348
root  -6.2358 28.7634 22.6951 -86.5967 5.06212 70.0226
Spine  -6.39526 8.83578 -0.818184
Spine1  -8.77377 20.7751 -6.32298
Neck  3.97569e-016 0 -2.38542e-015
Head  15.2127 -18.2579 5.93441
R_Clavicle  -0.0711672 -11.5571 -2.9497
R_UpperArm  -7.14575 12.4716 13.2408
R_Forearm  16.6757 5.83217 -4.89488
R_Hand  -0.128197 21.6346 -16.4078
L_Clavicle  -0.187419 8.84155 -0.922957
L_UpperArm  -18.7778 -7.62593 1.50539
L_Forearm  -11.697 8.20387 9.57497
L_Hand  -0.398315 10.0442 -2.68592
L_Thigh  -16.911 -31.2245 -9.48505
L_Calf  2.04829 -1.13702 8.5379
L_Foot  14.2758 11.0215 34.9629
L_Toe0  0.505156 0.034446 -6.1361
R_Thigh  25.658 6.10147 24.4772
R_Calf  3.27936 -8.9015 -29.0459
R_Foot  2.57991 9.69196 10.9271
R_Toe0  -1.78853 -0.272788 -17.3235
349
root  -6.24861 29.153 22.1606 -91.5095 6.1221 72.8063
Spine  -3.26407 14.7132 1.09087
Spine1  -6.78779 16.818 -9.28246
Neck  3.97569e-016 0 -2.38542e-015
Head  14.57 -18.8922 7.32206
R_Clavicle  -0.352915 -6.33078 -3.28154
R_UpperArm  -9.56587 19.0037 7.62434
R_Forearm  13.2829 -2.68591 2.42002
R_Hand  0.297311 22.1304 -14.8077
L_Clavicle  -0.182428 10.1507 -1.93783
L_UpperArm  -16.2985 -1.64567 5.70471
L_Forearm  -10.8309 15.1278 18.1841
L_Hand  -0.395999 9.75757 -2.72594
L_Thigh  -19.0381 -28.4478 -8.53679
L_Calf  1.63725 -1.5594 11.6056
L_Foot  13.0739 9.72752 33.6656
L_Toe0  0.471618 0.0354345 -6.16586
R_Thigh  26.0122 4.05607 27.3288
R_Calf  6.76926 -5.51698 -17.4368
R_Foot  1.52335 6.81449 9.04627
R_Toe0  -1.78853 -0.272788 -17.3235
350
root  -6.09794 29.3464 21.7089 -96.8448 6.5378 76.2901
Spine  1.43059 18.619 6.44133
Spine1  -3.78999 13.9882 -13.1858
Neck  3.97569e-016 0 -2.38542e-015
Head  12.684 -17.7685 8.49793
R_Clavicle  -0.51878 -2.63314 -3.24352
R_UpperArm  -9.90402 24.9557 2.83136
R_Forearm  11.5052 -17.1941 12.9395
R_Hand  0.0953533 21.0614 -15.386
L_Clavicle  -0.197026 11.1041 -2.59865
L_UpperArm  -11.8148 4.40195 10.1405
L_Forearm  -11.0812 20.7969 26.1568
L_Hand  -0.338186 9.57074 -2.32702
L_Thigh  -20.1956 -24.7518 -6.60772
L_Calf  0.0589035 -1.48831 10.9015
L_Foot  10.9311 7.08941 31.6659
L_Toe0  0.722572 0.0330726 -5.94273
R_Thigh  25.7064 4.72633 29.6965
R_Calf  9.86765 -1.17889 -3.66126
R_Foot  -0.0242231 2.4813 7.87457
R_Toe0  -1.78853 -0.272788 -17.3235
351
root  -5.89959 29.1993 21.3562 -101.205 6.02511 79.5152
Spine  6.33738 20.4364 13.1699
Spine1  -0.749193 11.265 -15.962
Neck  3.97569e-016 0 -2.38542e-015
Head  9.62498 -15.5169 7.83915
R_Clavicle  -0.617391 -0.729568 -3.31022
R_UpperArm  7.84505 30.8721 0.0151195
R_Forearm  -2.57374 -36.6034 23.0872
R_Hand  -0.0743898 19.7643 -15.8544
L_Clavicle  -0.209526 11.5364 -2.84292
L_UpperArm  -8.07161 8.46455 14.4539
L_Forearm  -8.59668 26.1277 33.2819
L_Hand  -0.250181 9.32981 -1.69457
L_Thigh  -20.7402 -21.3895 -3.90071
L_Calf  -4.06259 -0.691278 4.86043
L_Foot  9.97928 6.06434 30.4005
L_Toe0  2.73784 -0.0714091 -4.33429
R_Thigh  23.8488 5.85674 31.3481
R_Calf  12.5927 2.98292 9.30658
R_Foot  -1.0696 -0.54195 7.34386
R_Toe0  -1.78853 -0.272788 -17.3235
352
root  -5.70343 28.572 20.9625 -103.674 4.62004 82.4498
Spine  10.3743 21.5542 18.3834
Spine1  1.7308 8.42304 -15.9341
Neck  3.97569e-016 0 -2.38542e-015
Head  5.99153 -14.1958 5.54174
R_Clavicle  -0.635713 0.626815 -3.09263
R_UpperArm  38.6012 36.0919 1.16725
R_Forearm  -28.4955 -47.2079 39.0839
R_Hand  0.123027 18.2001 -14.624
L_Clavicle  -0.223133 12.0641 -3.25956
L_UpperArm  -13.245 9.57126 18.9651
L_Forearm  0.791868 33.9362 38.8223
L_Hand  -0.209622 8.78108 -1.44826
L_Thigh  -20.2579 -18.7714 -1.48355
L_Calf  -9.15741 0.630778 -4.93467
L_Foot  9.35482 5.42475 29.4608
L_Toe0  4.73644 -0.353702 -0.976842
R_Thigh  22.869 5.46573 32.2209
R_Calf  15.436 6.04295 19.2305
R_Foot  -2.0131 -4.58636 4.60419
R_Toe0  -1.78853 -0.272788 -17.3235
353
root  -5.52543 27.405 20.3555 -105.378 2.69691 84.9835
Spine  13.5904 22.541 21.3242
Spine1  4.29692 5.06865 -13.7293
Neck  3.97569e-016 0 -2.38542e-015
Head  2.40418 -14.2151 3.51117
R_Clavicle  -0.458967 1.58917 -2.05103
R_UpperArm  46.753 39.2774 7.39858
R_Forearm  -21.0588 -44.5048 44.3257
R_Hand  0.183983 16.5499 -13.857
L_Clavicle  -0.252101 12.8654 -3.88121
L_UpperArm  -23.4952 8.007 23.7615
L_Forearm  11.5552 41.3186 45.3794
L_Hand  -0.205157 7.94687 -1.52193
L_Thigh  -19.4572 -17.2223 0.0146136
L_Calf  -13.587 2.19085 -16.5735
L_Foot  8.59385 4.0359 29.3474
L_Toe0  1.734 -0.367064 3.79525
R_Thigh  26.054 4.09815 33.1618
R_Calf  17.5959 7.08724 22.8152
R_Foot  -4.41278 -16.4673 -0.94804
R_Toe0  -1.78853 -0.272788 -17.3235
354
root  -5.3096 25.9252 19.6033 -107.354 0.91396 87.2147
Spine  16.085 23.4602 23.0895
Spine1  6.97252 0.733925 -11.0471
Neck  3.97569e-016 0 -2.38542e-015
Head  -0.108034 -13.9472 2.58273
R_Clavicle  -0.217696 1.08894 -0.967766
R_UpperArm  49.2394 40.3457 16.5641
R_Forearm  -10.5476 -44.6095 43.3968
R_Hand  -0.0911346 14.9013 -14.7718
L_Clavicle  -0.321859 13.8732 -3.61978
L_UpperArm  -25.7288 4.86192 28.7027
L_Forearm  11.1588 42.7202 51.5668
L_Hand  -0.211771 7.47019 -1.64977
L_Thigh  -18.7577 -16.3247 0.289381
L_Calf  -16.5535 3.60082 -27.6531
L_Foot  7.73319 1.81748 30.4961
L_Toe0  0.43491 -0.206838 6.24926
R_Thigh  30.4685 3.50718 34.3222
R_Calf  18.2831 5.99407 19.1098
R_Foot  -5.34741 -25.5481 -5.8403
R_Toe0  -1.78853 -0.272788 -17.3235
355
root  -5.03978 24.5764 18.9484 -107.963 -0.345806 88.8975
Spine  16.5894 24.2318 23.6908
Spine1  8.02575 -3.04995 -8.30523
Neck  3.97569e-016 0 -2.38542e-015
Head  -0.482505 -12.4141 1.48142
R_Clavicle  -0.140704 -0.266068 -0.74612
R_UpperArm  49.0927 41.056 24.1077
R_Forearm  -7.26884 -44.2492 39.8929
R_Hand  -0.294074 13.579 -15.5176
L_Clavicle  -0.39126 14.688 -1.9375
L_UpperArm  -29.153 2.55676 33.2667
L_Forearm  7.7777 40.7877 53.4753
L_Hand  -0.218243 7.75716 -1.66056
L_Thigh  -16.8541 -16.1408 -0.850279
L_Calf  -18.5789 4.53585 -35.6182
L_Foot  7.13886 -0.408586 32.9728
L_Toe0  -0.36265 -0.045609 7.155
R_Thigh  31.246 3.61513 37.0881
R_Calf  20.0388 2.81477 8.99323
R_Foot  -5.86303 -23.9582 -2.98089
R_Toe0  -1.78853 -0.272788 -17.3235
356
root  -4.76234 23.8496 18.6329 -105.247 -1.06173 89.5254
Spine  14.3261 23.9657 22.227
Spine1  6.64389 -3.27452 -5.26088
Neck  3.97569e-016 0 -2.38542e-015
Head  0.918531 -10.4892 -1.00423
R_Clavicle  -0.154125 -1.0038 -0.913778
R_UpperArm  50.5125 42.4364 28.2004
R_Forearm  -2.60035 -41.5552 35.6073
R_Hand  -0.318359 12.1526 -15.2446
L_Clavicle  -0.413161 14.6934 -0.0772397
L_UpperArm  -33.5919 3.73008 36.6587
L_Forearm  2.05654 36.5245 51.672
L_Hand  -0.258325 8.29666 -1.91558
L_Thigh  -12.8307 -16.4754 -3.05805
L_Calf  -18.2172 4.85361 -38.524
L_Foot  6.8453 -2.22563 36.1782
L_Toe0  0.0781828 -0.172724 7.87348
R_Thigh  30.2247 2.72609 39.2778
R_Calf  23.4531 0.668852 2.34549
R_Foot  -6.54414 -22.404 0.392472
R_Toe0  -1.78853 -0.272788 -17.3235
357
root  -4.51173 23.8628 18.7223 -100.674 -0.948509 89.3695
Spine  11.4087 21.8443 19.9656
Spine1  4.84284 0.051144 -3.31626
Neck  3.97569e-016 0 -2.38542e-015
Head  2.40836 -9.21353 -4.61207
R_Clavicle  -0.0184276 -2.02865 -0.318894
R_UpperArm  55.3124 43.2489 30.8268
R_Forearm  12.0891 -37.4784 32.2672
R_Hand  -0.443839 9.44972 -15.1522
L_Clavicle  -0.412977 14.3038 0.647377
L_UpperArm  -38.1818 7.6077 38.9725
L_Forearm  -4.49865 31.6517 46.7714
L_Hand  -0.443428 8.55529 -3.37026
L_Thigh  -9.04086 -15.847 -4.91174
L_Calf  -14.0376 4.66187 -36.7651
L_Foot  7.07593 -3.16846 39.6569
L_Toe0  2.77266 -0.803651 7.6814
R_Thigh  29.9114 0.150213 39.6761
R_Calf  25.0227 0.51584 1.83992
R_Foot  -5.93523 -21.198 -0.429184
R_Toe0  -1.78853 -0.272788 -17.3235
